<?xml version="1.0" encoding="UTF-8" standalone="no"?><!DOCTYPE svg PUBLIC "-//W3C//DTD SVG 1.1//EN" "http://www.w3.org/Graphics/SVG/1.1/DTD/svg11.dtd"><svg width="100%" height="100%" viewBox="0 0 1001 1000" version="1.1" xmlns="http://www.w3.org/2000/svg" xmlns:xlink="http://www.w3.org/1999/xlink" xml:space="preserve" xmlns:serif="http://www.serif.com/" style="fill-rule:evenodd;clip-rule:evenodd;stroke-linejoin:round;stroke-miterlimit:2;"><rect id="logo-dark-outline" x="0.469" y="0" width="1000" height="1000" style="fill:none;"/><g><path d="M79.829,769.165l-0,-19.454c10.572,-1.052 19.476,-4.732 26.709,-11.042c7.234,-6.309 13.634,-15.949 19.198,-28.919c1.67,-4.206 10.434,-31.372 26.293,-81.498l177.37,-588.365l16.277,-0l140.226,459.545l154.417,-459.545l15.442,-0l186.134,582.055c18.92,58.539 32.136,93.943 39.648,106.211c7.512,12.269 20.171,19.455 37.978,21.558l-0,19.454l-245.397,0l-0,-19.454c19.754,-0.701 32.9,-4.469 39.439,-11.305c6.538,-6.835 9.807,-15.336 9.807,-25.501c0,-13.32 -6.816,-41.538 -20.45,-84.653l-111.013,-345.973l-88.894,270.258l23.372,75.715c12.798,41.363 22.675,68.967 29.631,82.813c6.956,13.846 14.955,23.748 23.997,29.707c9.043,5.959 22.328,8.939 39.856,8.939l0,19.454l-274.193,0l-0,-19.454c19.197,-0.351 32.97,-2.279 41.316,-5.784c5.843,-2.454 10.434,-6.572 13.773,-12.356c3.338,-5.784 5.008,-12.356 5.008,-19.717c-0,-8.063 -6.26,-32.775 -18.781,-74.138l-103.083,-337.56l-92.233,305.487c-9.738,31.548 -15.72,53.105 -17.945,64.673c-2.226,11.567 -3.339,22.258 -3.339,32.073c-0,14.372 3.895,25.677 11.685,33.914c7.791,8.237 22.676,12.707 44.656,13.408l0,19.454l-146.904,0Z" style="fill:#373737;fill-rule:nonzero;"/><path d="M500.469,0c275.957,0 500,224.042 500,500c-0,275.958 -224.043,500 -500,500c-275.958,0 -500,-224.042 -500,-500c-0,-275.958 224.042,-500 500,-500Zm-0,41.667c252.961,-0 458.333,205.372 458.333,458.333c0,252.961 -205.372,458.333 -458.333,458.333c-252.961,0 -458.333,-205.372 -458.333,-458.333c-0,-252.961 205.372,-458.333 458.333,-458.333Z" style="fill:#373737;"/></g></svg>