<svg height="512pt" viewBox="0 0 512 512" width="512pt" xmlns="http://www.w3.org/2000/svg"><g fill="#6dccf2"><path d="m255.996094 149.140625c-67.96875 0-131.785156 26.398437-179.730469 74.34375l24.625 24.625c42.761719-42.757813 98.929687-64.144531 155.105469-64.144531 56.167968 0 112.34375 21.386718 155.105468 64.144531l24.628907-24.625c-47.933594-47.945313-111.765625-74.34375-179.734375-74.34375zm0 0"/><path d="m255.996094 212.445312c-51.035156 0-98.960938 19.820313-134.953125 55.816407l24.625 24.636719h.011719c29.417968-29.417969 68.589843-45.621094 110.316406-45.621094 41.726562 0 80.910156 16.203125 110.320312 45.621094l24.636719-24.636719c-35.996094-35.996094-83.929687-55.816407-134.957031-55.816407zm0 0"/><path d="m165.828125 313.050781 24.628906 24.625c18.070313-18.070312 41.800781-27.105469 65.539063-27.105469 23.730468 0 47.46875 9.042969 65.539062 27.105469l24.628906-24.625c-49.71875-49.71875-130.605468-49.71875-180.335937 0zm0 0"/><path d="m301.449219 357.761719-45.453125 45.453125-45.453125-45.453125c11.632812-11.621094 27.699219-18.820313 45.453125-18.820313s33.820312 7.199219 45.453125 18.820313zm0 0"/></g><path d="m256 0c-141.386719 0-256 114.613281-256 256s114.613281 256 256 256 256-114.613281 256-256-114.613281-256-256-256zm-209.953125 256c0-71.15625 35.40625-134.03125 89.550781-172.003906l200.417969 366.152344c-24.664063 10.175781-51.679687 15.800781-80.015625 15.800781-115.953125.003906-209.953125-93.996094-209.953125-209.949219zm330.347656 172.007812-200.414062-366.15625c24.660156-10.175781 51.683593-15.804687 80.019531-15.804687 115.953125 0 209.941406 94 209.941406 209.953125 0 71.15625-35.402344 134.035156-89.546875 172.007812zm0 0" fill="#ff5a73"/></svg>